<svg width="658" height="475" viewBox="0 0 658 475" fill="none" xmlns="http://www.w3.org/2000/svg">
<path d="M388.309 460L129.309 474L0.308594 323.5L217.808 334L388.309 460Z" fill="#A56B6B"/>
<path d="M18.8112 312.5L196.811 321.5L294.811 399L152.311 463.5L18.8112 312.5Z" fill="#F9C4C4"/>
<path d="M29.3112 311.5L207.311 320.5L305.311 398L162.811 462.5L29.3112 311.5Z" fill="#F9C4C4"/>
<path d="M29.3112 311.5L207.311 320.5L305.311 398L162.811 462.5L29.3112 311.5Z" fill="#F9C4C4"/>
<path d="M47.3112 312.5L225.311 321.5L323.311 399L180.811 463.5L47.3112 312.5Z" fill="#F9C4C4"/>
<path d="M47.3112 312.5L225.311 321.5L323.311 399L180.811 463.5L47.3112 312.5Z" fill="#F9C4C4"/>
<path d="M237.811 335L294.311 388L182.811 441L94.3112 335H237.811Z" fill="#CEA2A2"/>
<path d="M141.811 253.5C59.8112 245.09 287.311 260.499 340.311 275C393.31 289.5 340.311 405.5 340.311 405.5L176.81 450C176.81 450 223.811 261.91 141.811 253.5Z" fill="#F9C4C4"/>
<path d="M629.309 369.5L386.309 445L154.809 462.5L344.309 369.5H629.309Z" fill="#EDA5A5"/>
<path d="M127.311 474.5L335.811 380.5L655.811 372L386.991 460.076L127.311 474.5Z" fill="#D9D9D9"/>
<path d="M224.344 80.5C224.344 73.5 133.345 217.14 201.845 238.5C294.844 267.5 220.251 405.911 210.808 428.5L339.808 365.5H608.344C563.061 348.015 576.032 303.377 636.344 190C565.226 253.348 569.629 269.115 534.844 262C602.527 204.313 564.803 205.43 556.845 111C547.844 215.5 498.781 245.103 421.844 309.5C506.06 217.546 444.344 225 458.844 152.5C406.844 259.5 376.345 247 336.845 295C399.345 203 440.179 93.4546 353.344 30.5C376.866 181.5 274.344 79 301.344 200.5C202.844 89.5 224.344 87.5 224.344 80.5Z" fill="#CA3636" fill-opacity="0.9"/>
<path d="M234.381 291C210.663 267.084 157.228 272.112 148.845 149.5C192.512 206.494 161.006 273.139 201.845 252.5C208.456 258.632 228.818 248.168 234.381 291Z" fill="#CA3636" fill-opacity="0.9"/>
<path d="M472.005 252.5C498.338 229.068 552.089 183.414 554.505 61C510.837 117.994 509.343 167.139 468.505 146.5C466.005 195 493.864 228.141 472.005 252.5Z" fill="#CA3636" fill-opacity="0.9"/>
<path d="M245.309 78C245.309 71 154.309 214.64 222.809 236C315.808 265 237.252 389.911 227.81 412.5L345.308 363H629.308C584.025 345.515 596.996 300.877 657.308 187.5C586.19 250.848 590.594 266.615 555.808 259.5C623.491 201.813 585.767 202.93 577.809 108.5C568.808 213 519.745 242.603 442.809 307C527.024 215.046 465.308 222.5 479.808 150C427.808 257 397.309 244.5 357.809 292.5C420.309 200.5 461.144 90.9546 374.309 28C397.831 179 295.308 76.5 322.308 198C223.808 87 245.309 85 245.309 78Z" fill="#E22222" fill-opacity="0.6"/>
<path d="M312.808 178C289.091 154.084 267.692 122.612 259.308 0C302.976 56.9941 284.47 106.639 325.308 86C331.92 92.1324 307.246 135.168 312.808 178Z" fill="#E22222" fill-opacity="0.6"/>
<path d="M492.969 250C519.302 226.568 573.053 180.914 575.469 58.5C531.802 115.494 530.307 164.639 489.469 144C486.969 192.5 514.829 225.641 492.969 250Z" fill="#E22222" fill-opacity="0.6"/>
<path d="M248.678 131C248.678 125.773 198.601 226 231.308 226C302.793 226 255.595 382.634 248.678 399.5L334.752 362.54L580.308 356.5C547.136 343.445 519.127 316.155 563.308 231.5C511.211 278.8 514.436 290.573 488.954 285.26C538.535 242.187 548.627 230.508 542.797 160C536.204 238.027 462.536 272.643 406.176 320.727C467.869 252.068 442.186 257.633 452.808 203.5C414.715 283.393 372.845 274.06 343.91 309.9C389.694 241.207 456.92 138.506 393.308 91.5C410.54 204.247 298.125 148.62 317.904 239.34C245.747 156.46 248.678 136.227 248.678 131Z" fill="#EDEF83" fill-opacity="0.5"/>
<path d="M310.944 185.853C293.57 167.996 277.894 144.497 271.753 52.9468C303.742 95.5024 290.185 132.57 320.101 117.16C324.944 121.739 306.87 153.872 310.944 185.853Z" fill="#EDEF83" fill-opacity="0.5"/>
<path d="M471.872 260.147C491.163 242.651 530.538 208.563 532.308 117.16C500.319 159.716 499.225 196.41 469.308 181C467.477 217.213 487.886 241.958 471.872 260.147Z" fill="#EDEF83" fill-opacity="0.5"/>
</svg>
