<svg width="435" height="371" viewBox="0 0 435 371" fill="none" xmlns="http://www.w3.org/2000/svg">
<path d="M239.846 20.1695C231.077 47.3594 226.989 60.0341 239.692 67C255.192 75.5 223.191 64.5 218.191 46.5C214.14 31.9149 220.594 25.5368 234.892 11.4058C238.24 8.09729 242.018 4.36336 246.191 0C243.936 7.48874 241.778 14.1797 239.847 20.1669L239.846 20.1695Z" fill="black"/>
<path d="M180.5 174C192 224 148.201 178.035 134 144.5C137.446 220.037 166.5 269 216.5 296C261.592 271.757 276.024 232.466 295.646 179.044L295.687 178.932C296.286 177.301 296.89 175.657 297.5 174C277.697 201.953 267.59 210.075 250.5 217.5C272.909 177.922 274.834 147.826 250.5 73.5C243.874 149.926 238.54 175.746 224.5 174C224.5 174 198.5 48.5 204.5 13C210.5 -22.5 169 124 180.5 174Z" fill="black"/>
<path d="M277 183C289.769 167 284.985 136.228 267 84C273.005 89.4914 278.44 94.1901 283.257 98.3539C303.829 116.138 313.114 124.165 307.286 142.521C300.093 165.174 264.231 199 277 183Z" fill="black"/>
<path d="M173 177.5C160.5 164 159.872 117.448 177 67C171.494 72.107 166.39 76.6044 161.768 80.6777C141.085 98.9042 130.035 108.642 135.634 126.526C142.485 148.406 185.5 191 173 177.5Z" fill="black"/>
<path d="M340.747 148.575C343.588 143.839 349.731 142.303 354.467 145.145L367.329 152.861C372.065 155.703 373.601 161.845 370.76 166.581L314.046 261.114L400.846 211C405.629 208.239 411.745 209.877 414.506 214.66L434.506 249.301L226.66 369.301C223.664 371.031 220.144 371.034 217.253 369.619C214.363 371.034 210.843 371.031 207.846 369.301L0 249.301L20 214.66C22.7614 209.877 28.8773 208.239 33.6603 211L217.253 316.997L251.601 297.167L340.747 148.575Z" fill="black"/>
</svg>
