<svg width="1408" height="371" viewBox="0 0 1408 371" fill="none" xmlns="http://www.w3.org/2000/svg">
<path fill-rule="evenodd" clip-rule="evenodd" d="M239.846 20.1695C231.077 47.3594 226.989 60.0341 239.692 67C255.192 75.5 223.191 64.5 218.191 46.5C214.14 31.9149 220.594 25.5368 234.892 11.4058L234.895 11.4032C238.242 8.09531 242.019 4.3622 246.191 0C243.936 7.48827 241.778 14.1789 239.847 20.1658L239.847 20.1669L239.846 20.1695ZM180.5 174C192 224 148.201 178.035 134 144.5C137.446 220.037 166.5 269 216.5 296C261.592 271.757 276.024 232.466 295.646 179.044L295.687 178.932L295.767 178.715C296.34 177.155 296.917 175.584 297.5 174C277.697 201.953 267.59 210.075 250.5 217.5C272.909 177.922 274.834 147.826 250.5 73.5C243.874 149.926 238.54 175.746 224.5 174C224.5 174 198.5 48.5 204.5 13C210.5 -22.5 169 124 180.5 174ZM267 84C284.985 136.228 289.769 167 277 183C264.231 199 300.093 165.174 307.286 142.521C313.114 124.165 303.829 116.138 283.257 98.3539L283.255 98.3524L283.254 98.3517L283.254 98.3513C278.438 94.1881 273.004 89.4902 267 84ZM173 177.5C160.5 164 159.872 117.448 177 67C171.494 72.107 166.39 76.6044 161.768 80.6777C141.085 98.9042 130.035 108.642 135.634 126.526C142.485 148.406 185.5 191 173 177.5ZM354.467 145.145C349.731 142.303 343.588 143.839 340.747 148.575L251.601 297.167L217.253 316.997L33.6603 211C28.8773 208.239 22.7614 209.877 20 214.66L0 249.301L207.846 369.301C210.843 371.031 214.363 371.034 217.253 369.619C220.144 371.034 223.664 371.031 226.66 369.301L434.506 249.301L414.506 214.66C411.745 209.877 405.629 208.239 400.846 211L314.046 261.114L370.76 166.581C373.601 161.845 372.065 155.703 367.329 152.861L354.467 145.145ZM473.52 206.02H514.56V185.32H473.52V151.3H519.96V130.6H451.92V253H473.52V206.02ZM542.799 253H564.399V130.6H542.799V253ZM619.77 253V208H639.21C647.49 223 654.63 238 660.63 253H685.29C678.33 236.8 669.93 220.3 660.09 203.5C665.73 200.74 670.05 196.72 673.05 191.44C676.05 186.16 677.55 180.04 677.55 173.08V165.34C677.55 154.78 674.19 146.38 667.47 140.14C660.87 133.78 651.39 130.6 639.03 130.6H598.17V253H619.77ZM619.77 150.4H639.03C644.31 150.4 648.33 151.78 651.09 154.54C653.97 157.18 655.41 160.78 655.41 165.34V173.08C655.41 177.76 653.97 181.48 651.09 184.24C648.33 186.88 644.31 188.2 639.03 188.2H619.77V150.4ZM778.778 253V232.3H729.458V201.34H771.578V180.64H729.458V151.3H776.977V130.6H707.857V253H778.778ZM804.361 130.6V253H846.121C855.361 253 862.741 251.62 868.261 248.86C873.781 246.1 877.741 242.26 880.141 237.34C882.541 232.3 883.741 226.48 883.741 219.88V214.84C883.741 208.84 882.241 203.68 879.241 199.36C876.241 195.04 871.861 191.74 866.101 189.46C874.261 184.42 878.341 177.16 878.341 167.68V162.64C878.341 156.16 877.141 150.52 874.741 145.72C872.461 140.92 868.621 137.2 863.221 134.56C857.941 131.92 850.741 130.6 841.621 130.6H804.361ZM825.961 150.4H841.621C846.421 150.4 850.021 151.48 852.421 153.64C854.941 155.8 856.201 158.8 856.201 162.64V168.58C856.201 172.42 854.941 175.48 852.421 177.76C850.021 179.92 846.421 181 841.621 181H825.961V150.4ZM825.961 200.8H846.121C851.161 200.8 855.001 202 857.641 204.4C860.281 206.68 861.601 209.86 861.601 213.94V219.88C861.601 223.96 860.281 227.2 857.641 229.6C855.001 232 851.161 233.2 846.121 233.2H825.961V200.8ZM996.234 204.58V178.84C996.234 163.24 992.334 151 984.534 142.12C976.734 133.24 965.334 128.8 950.334 128.8C935.214 128.8 923.754 133.24 915.954 142.12C908.274 151 904.434 163.24 904.434 178.84V204.58C904.434 220.18 908.274 232.48 915.954 241.48C923.754 250.36 935.214 254.8 950.334 254.8C965.334 254.8 976.734 250.36 984.534 241.48C992.334 232.48 996.234 220.18 996.234 204.58ZM968.334 156.7C972.174 161.62 974.094 169 974.094 178.84V204.58C974.094 214.42 972.174 221.86 968.334 226.9C964.494 231.94 958.494 234.46 950.334 234.46C942.174 234.46 936.174 231.94 932.334 226.9C928.494 221.86 926.574 214.42 926.574 204.58V178.84C926.574 169 928.494 161.62 932.334 156.7C936.174 151.66 942.174 149.14 950.334 149.14C958.494 149.14 964.494 151.66 968.334 156.7ZM1111.37 204.58V178.84C1111.37 163.24 1107.47 151 1099.67 142.12C1091.87 133.24 1080.47 128.8 1065.47 128.8C1050.35 128.8 1038.89 133.24 1031.09 142.12C1023.41 151 1019.57 163.24 1019.57 178.84V204.58C1019.57 220.18 1023.41 232.48 1031.09 241.48C1038.89 250.36 1050.35 254.8 1065.47 254.8C1080.47 254.8 1091.87 250.36 1099.67 241.48C1107.47 232.48 1111.37 220.18 1111.37 204.58ZM1083.47 156.7C1087.31 161.62 1089.23 169 1089.23 178.84V204.58C1089.23 214.42 1087.31 221.86 1083.47 226.9C1079.63 231.94 1073.63 234.46 1065.47 234.46C1057.31 234.46 1051.31 231.94 1047.47 226.9C1043.63 221.86 1041.71 214.42 1041.71 204.58V178.84C1041.71 169 1043.63 161.62 1047.47 156.7C1051.31 151.66 1057.31 149.14 1065.47 149.14C1073.63 149.14 1079.63 151.66 1083.47 156.7ZM1174.31 199.54L1204.91 253H1231.01L1190.33 185.32C1196.81 177.52 1202.93 169.06 1208.69 159.94C1214.57 150.7 1220.09 140.92 1225.25 130.6H1201.67C1196.99 140.08 1191.41 149.56 1184.93 159.04C1178.45 168.4 1170.65 178.3 1161.53 188.74V130.6H1139.93V253H1161.53V213.4C1163.81 211 1165.97 208.66 1168.01 206.38C1170.17 204.1 1172.27 201.82 1174.31 199.54ZM1321.41 253V232.3H1272.45V130.6H1250.85V253H1321.41ZM1369.8 203.86L1407.24 130.6H1384.92L1359.9 182.8L1333.44 130.6H1310.4L1348.2 204.22V253H1369.8V203.86Z" fill="black"/>
</svg>
