<svg width="1000" height="832" viewBox="0 0 1000 832" fill="none" xmlns="http://www.w3.org/2000/svg">
<g clip-path="url(#clip0_52_2)">
<rect width="1000" height="832" fill="white"/>
<circle cx="32" cy="627" r="385" stroke="#FF0000" stroke-width="30"/>
<circle cx="904" cy="192" r="50" fill="#D9D9D9"/>
<circle cx="148" cy="551" r="50" fill="#D9D9D9"/>
<circle cx="704" cy="717" r="50" fill="#D9D9D9"/>
<circle cx="1021" cy="216" r="185" stroke="#FF0000" stroke-width="30"/>
<circle cx="1021" cy="216" r="185" stroke="#FF0000" stroke-width="30"/>
<circle cx="1021" cy="216" r="140" stroke="#FF0000" stroke-width="20"/>
<circle cx="804" cy="687" r="35" stroke="#FF0000" stroke-width="30"/>
<circle cx="804" cy="687" r="35" stroke="#FF0000" stroke-width="30"/>
<circle cx="804" cy="687" r="27.5" stroke="#FF0000" stroke-width="20"/>
<circle cx="590" cy="82" r="47.5" stroke="#FF0000" stroke-width="5"/>
<circle cx="590" cy="82" r="35" stroke="#FF0000" stroke-width="5"/>
<mask id="path-13-inside-1_52_2" fill="white">
<rect x="-72" y="101" width="300" height="100" rx="20"/>
</mask>
<rect x="-72" y="101" width="300" height="100" rx="20" stroke="#FF0000" stroke-width="60" mask="url(#path-13-inside-1_52_2)"/>
<mask id="path-14-inside-2_52_2" fill="white">
<rect x="312" y="617" width="300" height="100" rx="20"/>
</mask>
<rect x="312" y="617" width="300" height="100" rx="20" stroke="#FF0000" stroke-width="60" mask="url(#path-14-inside-2_52_2)"/>
<mask id="path-15-inside-3_52_2" fill="white">
<rect x="362" y="242" width="100" height="100" rx="20"/>
</mask>
<rect x="362" y="242" width="100" height="100" rx="20" stroke="#FF0000" stroke-width="60" mask="url(#path-15-inside-3_52_2)"/>
<mask id="path-16-inside-4_52_2" fill="white">
<rect x="757" y="451" width="300" height="100" rx="20"/>
</mask>
<rect x="757" y="451" width="300" height="100" rx="20" fill="#FF0000" stroke="#FF0000" stroke-width="60" mask="url(#path-16-inside-4_52_2)"/>
</g>
<defs>
<clipPath id="clip0_52_2">
<rect width="1000" height="832" fill="white"/>
</clipPath>
</defs>
</svg>
